<svg xmlns="http://www.w3.org/2000/svg" width="114" height="106" version="1.1"><defs><filter id="bevelFilter" width="200%" height="200%" x0="-50%" y0="-50%"><feGaussianBlur in="SourceAlpha" result="blur-1" stdDeviation="1 1"/><feFlood flood-color="#fff" flood-opacity=".15" in="undefined" result="flood-2"/><feOffset dx="1" dy="1" in="blur-1" result="offset-3"/><feComposite in="SourceAlpha" in2="offset-3" k2="1" k3="-1" operator="arithmetic" result="comp-4"/><feComposite in="flood-2" in2="comp-4" operator="in" result="comp-5"/><feFlood flood-color="#000" flood-opacity=".7" in="undefined" result="flood-6"/><feOffset dx="-1" dy="-1" in="blur-1" result="offset-7"/><feComposite in="SourceAlpha" in2="offset-7" k2="1" k3="-1" operator="arithmetic" result="comp-8"/><feComposite in="flood-6" in2="comp-8" operator="in" result="comp-9"/><feMerge result="merge-10"><feMergeNode in="SourceGraphic"/><feMergeNode in="comp-5"/><feMergeNode in="comp-9"/></feMerge></filter><filter id="inputBevelFilter" width="200%" height="200%" x0="-50%" y0="-50%"><feGaussianBlur in="SourceAlpha" result="blur-1" stdDeviation="1 1"/><feFlood flood-color="#fff" flood-opacity=".15" in="undefined" result="flood-2"/><feOffset dx="-1" dy="-1" in="blur-1" result="offset-3"/><feComposite in="SourceAlpha" in2="offset-3" k2="1" k3="-1" operator="arithmetic" result="comp-4"/><feComposite in="flood-2" in2="comp-4" operator="in" result="comp-5"/><feFlood flood-color="#000" flood-opacity=".7" in="undefined" result="flood-6"/><feOffset dx="1" dy="1" in="blur-1" result="offset-7"/><feComposite in="SourceAlpha" in2="offset-7" k2="1" k3="-1" operator="arithmetic" result="comp-8"/><feComposite in="flood-6" in2="comp-8" operator="in" result="comp-9"/><feMerge result="merge-10"><feMergeNode in="SourceGraphic"/><feMergeNode in="comp-5"/><feMergeNode in="comp-9"/></feMerge></filter><filter id="inputDarkFilter" width="200%" height="200%" x0="-50%" y0="-50%"><feFlood flood-color="#000" flood-opacity=".2" in="undefined" result="flood-1"/><feComposite in="flood-1" in2="SourceAlpha" operator="in" result="comp-2"/><feMerge result="merge-3"><feMergeNode in="SourceGraphic"/><feMergeNode in="comp-2"/></feMerge></filter><filter id="desaturateFilter" width="200%" height="200%" x0="-50%" y0="-50%"><feColorMatrix in="SourceGraphic" result="colormatrix-1" type="matrix" values="0.333 0.333 0.333 0 0 0.333 0.333 0.333 0 0 0.333 0.333 0.333 0 0 0 0 0 1 0"/></filter><path id="greenFlag" fill="#3f8d15" d="M1.504 21L0 19.493 4.567 0h1.948l-.5 2.418s1.002-.502 3.006 0c2.006.503 3.008 2.01 6.517 2.01 3.508 0 4.463-.545 4.463-.545l-.823 9.892s-2.137 1.005-5.144.696c-3.007-.307-3.007-2.007-6.014-2.51-3.008-.502-4.512.503-4.512.503L1.504 21z"/><path id="turnRight" fill="#fff" d="M6.724 0C3.01 0 0 2.91 0 6.5c0 2.316 1.253 4.35 3.14 5.5H5.17v-1.256C3.364 10.126 2.07 8.46 2.07 6.5 2.07 4.015 4.152 2 6.723 2c1.14 0 2.184.396 2.993 1.053L8.31 4.13c-.45.344-.398.826.11 1.08L15 8.5 13.858.992c-.083-.547-.514-.714-.963-.37l-1.532 1.172A6.825 6.825 0 0 0 6.723 0z"/><path id="turnLeft" fill="#fff" d="M3.637 1.794A6.825 6.825 0 0 1 8.277 0C11.99 0 15 2.91 15 6.5c0 2.316-1.253 4.35-3.14 5.5H9.83v-1.256c1.808-.618 3.103-2.285 3.103-4.244 0-2.485-2.083-4.5-4.654-4.5-1.14 0-2.184.396-2.993 1.053L6.69 4.13c.45.344.398.826-.11 1.08L0 8.5 1.142.992c.083-.547.514-.714.963-.37l1.532 1.172z"/><path id="addInput" fill="#111" d="M0 0L4 4L0 8Z"/><path id="delInput" fill="#111" d="M4 0L4 8L0 4Z"/><g id="loopArrow"><path fill="#000" d="M8 0l2 -2l0 -3l3 0l-4 -5l-4 5l3 0l0 3l-8 0l0 2" opacity=".3"/><path fill="#fff" d="M8 0l2 -2l0 -3l3 0l-4 -5l-4 5l3 0l0 3l-8 0l0 2" opacity=".9" transform="translate(-1 -1)"/></g><style>.sb-label{font-family:Lucida Grande,Verdana,Arial,DejaVu Sans,sans-serif;font-weight:700;fill:#fff;font-size:10px;word-spacing:1px}.sb-motion{fill:#4a6cd4}.sb-sound{fill:#bb42c3}.sb-control{fill:#e1a91a}.sb-bevel{filter:url(#bevelFilter)}.sb-input{filter:url(#inputBevelFilter)}.sb-input-number,.sb-input-string{fill:#fff}.sb-literal-number,.sb-literal-string{font-weight:400;font-size:9px;word-spacing:0;fill:#000}</style></defs><g><g><g transform="translate(0 0) translate(2 0)"><path d="M 0 3 L 3 0 L 13 0 L 16 3 L 24 3 L 27 0 L 80 0 L 83 3 L 83 18 L 80 21 L 42 21 L 39 24 L 31 24 L 28 21 L 17 21 L 15 23 L 15 85 L 17 87 L 80 87 L 83 90 L 83 100 L 80 103 L 27 103 L 24 106 L 16 106 L 13 103 L 3 103 L 0 100" class="sb-control sb-bevel"/><text x="0" y="10" class="sb-label" transform="translate(6 4)">repeat</text><g><path d="M 6.5 0 L 7.5 0 A 6.5 6.5 0 0 1 7.5 13 L 6.5 13 A 6.5 6.5 0 0 1 6.5 0 Z" class="sb-input sb-input-number" transform="translate(40 3)"/><text x="0" y="10" class="sb-label sb-literal-number" transform="translate(40 3) translate(5 0)">9</text></g><use xmlns:xlink="http://www.w3.org/1999/xlink" transform="translate(68 100)" xlink:href="#loopArrow"/><g><g><path d="M 0 3 L 3 0 L 13 0 L 16 3 L 24 3 L 27 0 L 88 0 L 91 3 L 91 19 L 88 22 L 27 22 L 24 25 L 16 25 L 13 22 L 3 22 L 0 19 Z" class="sb-motion sb-bevel" transform="translate(15 21) translate(0 0)"/><text x="0" y="10" class="sb-label" transform="translate(15 21) translate(0 0) translate(6 5)">move</text><g><path d="M 6.5 0 L 12.5 0 A 6.5 6.5 0 0 1 12.5 13 L 6.5 13 A 6.5 6.5 0 0 1 6.5 0 Z" class="sb-input sb-input-number" transform="translate(15 21) translate(0 0) translate(36 4)"/><text x="0" y="10" class="sb-label sb-literal-number" transform="translate(15 21) translate(0 0) translate(36 4) translate(5 0)">10</text></g><text x="0" y="10" class="sb-label" transform="translate(15 21) translate(0 0) translate(59 5)">steps</text></g><g><path d="M 0 3 L 3 0 L 13 0 L 16 3 L 24 3 L 27 0 L 72 0 L 75 3 L 75 19 L 72 22 L 27 22 L 24 25 L 16 25 L 13 22 L 3 22 L 0 19 Z" class="sb-control sb-bevel" transform="translate(15 21) translate(0 22)"/><text x="0" y="10" class="sb-label" transform="translate(15 21) translate(0 22) translate(6 5)">wait</text><g><path d="M 6.5 0 L 7.5 0 A 6.5 6.5 0 0 1 7.5 13 L 6.5 13 A 6.5 6.5 0 0 1 6.5 0 Z" class="sb-input sb-input-number" transform="translate(15 21) translate(0 22) translate(29 4)"/><text x="0" y="10" class="sb-label sb-literal-number" transform="translate(15 21) translate(0 22) translate(29 4) translate(5 0)">5</text></g><text x="0" y="10" class="sb-label" transform="translate(15 21) translate(0 22) translate(47 5)">secs</text></g><g><path d="M 0 3 L 3 0 L 13 0 L 16 3 L 24 3 L 27 0 L 92 0 L 95 3 L 95 19 L 92 22 L 27 22 L 24 25 L 16 25 L 13 22 L 3 22 L 0 19 Z" class="sb-sound sb-bevel" transform="translate(15 21) translate(0 44)"/><text x="0" y="10" class="sb-label" transform="translate(15 21) translate(0 44) translate(6 5)">play</text><text x="0" y="10" class="sb-label" transform="translate(15 21) translate(0 44) translate(30 5)">sound</text><g transform="translate(15 21) translate(0 44) translate(64 4)"><rect width="25" height="14" x="0" y="0" class="sb-input sb-input-string"/><text x="0" y="10" class="sb-label sb-literal-string" transform="translate(4 0)">woof</text></g></g></g></g></g></g></svg>